<svg width="25" height="30" viewBox="0 0 25 30" fill="none" xmlns="http://www.w3.org/2000/svg">
<path d="M20.1591 15.9782C20.1736 14.8517 20.4728 13.7471 21.0289 12.7673C21.5851 11.7874 22.38 10.9642 23.3398 10.3741C22.7301 9.50331 21.9257 8.78669 20.9906 8.28115C20.0554 7.7756 19.0153 7.49507 17.9528 7.46183C15.6863 7.22392 13.489 8.81807 12.334 8.81807C11.1567 8.81807 9.37845 7.48545 7.46356 7.52485C6.22495 7.56486 5.01783 7.92504 3.95981 8.57029C2.90179 9.21554 2.02895 10.1238 1.42635 11.2067C-1.18402 15.7262 0.763076 22.3682 3.26359 26.0214C4.51465 27.8103 5.97678 29.8085 7.88995 29.7376C9.7621 29.66 10.4613 28.5438 12.7212 28.5438C14.96 28.5438 15.616 29.7376 17.568 29.6925C19.5769 29.6599 20.8426 27.8957 22.0498 26.0899C22.9487 24.8153 23.6404 23.4066 24.0992 21.9159C22.9321 21.4223 21.9361 20.596 21.2355 19.5401C20.5348 18.4842 20.1604 17.2455 20.1591 15.9782Z" fill="white"/>
<path d="M16.4722 5.05903C17.5675 3.74412 18.1071 2.05402 17.9765 0.347656C16.303 0.523418 14.7572 1.32321 13.6471 2.58767C13.1043 3.2054 12.6886 3.92404 12.4237 4.70252C12.1589 5.481 12.05 6.30405 12.1034 7.12462C12.9404 7.13324 13.7685 6.95182 14.5252 6.59403C15.282 6.23623 15.9477 5.71139 16.4722 5.05903Z" fill="white"/>
</svg>
