<svg width="27" height="30" viewBox="0 0 27 30" fill="none" xmlns="http://www.w3.org/2000/svg">
<path d="M12.6044 14.3843L0.437622 27.2973C0.438765 27.2996 0.438765 27.3031 0.439907 27.3053C0.813585 28.7075 2.09346 29.7394 3.61331 29.7394C4.22125 29.7394 4.79148 29.5748 5.28057 29.2869L5.31942 29.264L19.0141 21.3619L12.6044 14.3843Z" fill="#EA4335"/>
<path d="M24.9127 12.1856L24.9012 12.1776L18.9887 8.75055L12.3276 14.678L19.0127 21.3607L24.8932 17.9679C25.924 17.4103 26.6245 16.3235 26.6245 15.0711C26.6245 13.8255 25.9343 12.7444 24.9127 12.1856Z" fill="#FBBC04"/>
<path d="M0.437428 2.78895C0.364293 3.05863 0.325439 3.34203 0.325439 3.63458V26.4529C0.325439 26.7454 0.364293 27.0288 0.438571 27.2974L13.0225 14.7146L0.437428 2.78895Z" fill="#4285F4"/>
<path d="M12.6942 15.0436L18.9907 8.74821L5.31208 0.817567C4.81498 0.519311 4.23447 0.3479 3.61396 0.3479C2.09411 0.3479 0.811953 1.38208 0.438276 2.78537C0.438276 2.78651 0.437134 2.78766 0.437134 2.7888L12.6942 15.0436Z" fill="#34A853"/>
</svg>
